<?xml version="1.0" encoding="UTF-8"?>
<svg id="Layer_1" data-name="Layer 1" xmlns="http://www.w3.org/2000/svg" xmlns:xlink="http://www.w3.org/1999/xlink" viewBox="0 0 60 60">
  <defs>
    <style>
      .cls-1 {
        fill: #fff;
      }

      .cls-2 {
        fill: none;
        stroke: url(#linear-gradient);
        stroke-linecap: round;
        stroke-linejoin: round;
        stroke-width: .87px;
      }
    </style>
    <linearGradient id="linear-gradient" x1="2.17" y1="26.12" x2="57.83" y2="26.12" gradientUnits="userSpaceOnUse">
      <stop offset="0" stop-color="#fff" stop-opacity="0"/>
      <stop offset=".11" stop-color="#fff"/>
      <stop offset=".19" stop-color="#f9f9f9"/>
      <stop offset=".3" stop-color="#ebebeb"/>
      <stop offset=".42" stop-color="#d2d2d2"/>
      <stop offset=".54" stop-color="#b0b0b0"/>
      <stop offset=".67" stop-color="#848484"/>
      <stop offset=".8" stop-color="#4f4f4f"/>
      <stop offset=".86" stop-color="#333"/>
      <stop offset="1" stop-color="#4d4d4d" stop-opacity="0"/>
    </linearGradient>
  </defs>
  <circle cx="30" cy="30" r="30"/>
  <g>
    <g>
      <path class="cls-1" d="M15.35,41.42h4.27c.47,0,.92.12,1.33.37.41.25.73.59.97,1.02.24.43.36.89.36,1.4s-.12.97-.36,1.4c-.24.43-.56.77-.97,1.02-.41.25-.85.37-1.33.37h-4.28s-.05-.02-.05-.06v-5.45s.02-.07.07-.07ZM16.3,42.49v3.44h3.32c.45,0,.83-.17,1.16-.51.32-.34.48-.74.48-1.21s-.16-.88-.48-1.21c-.32-.34-.71-.51-1.16-.51h-3.32Z"/>
      <path class="cls-1" d="M25.6,41.42h1.68c.47,0,.92.12,1.33.37.41.25.73.59.97,1.02.24.43.36.89.36,1.4s-.12.97-.36,1.4c-.24.43-.56.77-.97,1.02-.41.25-.85.37-1.33.37h-1.68c-.48,0-.92-.12-1.33-.37-.41-.25-.73-.59-.97-1.02-.24-.43-.36-.89-.36-1.4s.12-.97.36-1.4c.24-.43.56-.77.97-1.02.41-.25.85-.37,1.33-.37ZM27.28,45.93c.45,0,.83-.17,1.16-.51.32-.34.48-.74.48-1.21s-.16-.88-.48-1.21c-.32-.34-.71-.51-1.16-.51h-1.68c-.29,0-.57.08-.82.23-.25.15-.45.36-.6.63-.15.26-.22.55-.22.86,0,.47.16.88.48,1.21.32.34.71.51,1.16.51h1.68Z"/>
      <path class="cls-1" d="M37.09,41.42c.05,0,.08.02.08.07v.92s-.03.07-.08.07h-2.92v4.44s-.02.07-.07.07h-.87c-.05,0-.08-.02-.08-.07v-4.44h-2.92s-.07-.02-.07-.07v-.92s.02-.07.07-.07h6.85Z"/>
      <path class="cls-1" d="M39.3,44.74c-.28,0-.55-.07-.79-.22-.24-.15-.43-.35-.58-.61-.14-.25-.21-.53-.21-.84,0-.46.16-.85.47-1.17.31-.32.68-.49,1.11-.49h5.23s.07.02.07.07v.92s-.02.07-.07.07h-5.23c-.16,0-.29.06-.4.18-.11.12-.17.26-.17.42s.06.3.17.42c.11.12.24.18.4.18h3.83c.43,0,.81.16,1.12.49.31.33.47.72.47,1.17s-.16.85-.47,1.17c-.31.32-.68.49-1.12.49h-5.23s-.07-.02-.07-.07v-.92s.02-.07.07-.07h5.24c.16,0,.29-.06.4-.18.11-.12.16-.26.16-.42s-.05-.3-.16-.42c-.11-.12-.24-.18-.4-.18h-3.84Z"/>
    </g>
    <g>
      <g>
        <circle class="cls-1" cx="30.15" cy="15.56" r="2.56"/>
        <circle class="cls-1" cx="17.77" cy="15.56" r="2.56"/>
        <circle class="cls-1" cx="42.1" cy="15.56" r="2.56"/>
        <circle class="cls-1" cx="17.77" cy="36.67" r="2.56"/>
        <circle class="cls-1" cx="17.77" cy="26.33" r="2.56"/>
        <circle class="cls-1" cx="30.15" cy="26.33" r="2.56"/>
        <circle class="cls-1" cx="42.1" cy="26.33" r="2.56"/>
        <circle class="cls-1" cx="30.15" cy="36.67" r="2.56"/>
        <circle class="cls-1" cx="42.1" cy="36.67" r="2.56"/>
      </g>
      <polyline class="cls-2" points="57.39 26.33 17.77 26.33 17.77 26.33 17.77 15.56 17.77 15.56 42.09 15.56 42.09 15.56 42.12 36.68 42.12 36.68 2.61 36.65"/>
    </g>
  </g>
</svg>